<svg width="64" height="64" viewBox="0 0 64 64" fill="none" xmlns="http://www.w3.org/2000/svg">
<g clip-path="url(#clip0_4915_77356)">
<path d="M31.9999 63.4919C49.3925 63.4919 63.4919 49.3925 63.4919 31.9999C63.4919 14.6073 49.3925 0.507812 31.9999 0.507812C14.6073 0.507812 0.507812 14.6073 0.507812 31.9999C0.507812 49.3925 14.6073 63.4919 31.9999 63.4919Z" fill="#9C70FF"/>
<path d="M32 1.01587C49.087 1.01587 62.9841 14.913 62.9841 32C62.9841 49.087 49.087 62.9841 32 62.9841C14.913 62.9841 1.01587 49.087 1.01587 32C1.01587 14.913 14.913 1.01587 32 1.01587ZM32 0C14.3238 0 0 14.3238 0 32C0 49.6762 14.3238 64 32 64C49.6762 64 64 49.6762 64 32C64 14.3238 49.6762 0 32 0Z" fill="#191919"/>
<path d="M50.4274 31.4414L36.002 14.5779C35.362 13.8363 34.2547 13.7144 33.4826 14.3138L15.8877 27.8046C15.4915 28.1093 15.2375 28.5462 15.1766 29.0338C15.1156 29.5214 15.2477 30.009 15.5626 30.4052L16.609 31.7259C17.0153 32.2439 17.6553 32.4776 18.2648 32.4065L16.6902 47.4109C16.5886 48.4166 17.3201 49.3309 18.3258 49.4325L43.5194 52.0839C43.5804 52.0839 43.6515 52.0941 43.7125 52.0941C44.129 52.0941 44.5353 51.9519 44.8706 51.6878C45.2566 51.383 45.4902 50.936 45.541 50.4484L47.1156 35.4439C47.3087 35.5151 47.5118 35.5557 47.715 35.5557C48.1315 35.5557 48.548 35.4236 48.8833 35.1392L50.1937 34.0624C50.5798 33.7474 50.8134 33.3005 50.854 32.8027C50.8947 32.3049 50.7423 31.8274 50.4172 31.4516L50.4274 31.4414Z" fill="#191919"/>
<path d="M45.6937 33.4632L44.0175 49.3717C43.9362 50.1032 43.2861 50.6314 42.5547 50.5603L17.361 47.9089C16.6296 47.8276 16.1013 47.1775 16.1724 46.446L17.8486 30.5374L33.168 18.7432L45.6937 33.4632Z" fill="white"/>
<path d="M42.6965 51.0782C42.6355 51.0782 42.5644 51.0782 42.5034 51.0681L17.3098 48.4166C16.3041 48.3151 15.5625 47.4008 15.6742 46.3951L17.3504 30.4763C17.3606 30.3341 17.4317 30.2122 17.5434 30.1309L32.8628 18.3366C33.0761 18.1741 33.3809 18.2046 33.5638 18.4078L46.0895 33.1278C46.1809 33.2293 46.2215 33.3716 46.2114 33.5138L44.5352 49.4224C44.4844 49.91 44.2406 50.3468 43.8647 50.6617C43.5295 50.9258 43.1333 51.0681 42.7066 51.0681L42.6965 51.0782ZM18.3257 30.8116L16.6799 46.5068C16.6292 46.9538 16.9644 47.3703 17.4114 47.4109L42.605 50.0624C42.8285 50.0827 43.0419 50.0217 43.2146 49.8795C43.3872 49.7373 43.4888 49.5443 43.5193 49.3208L45.165 33.6255L33.0863 19.4338L18.3257 30.8014V30.8116Z" fill="#191919"/>
<path d="M34.6 13.8973L49.0254 30.7608C49.513 31.3297 49.4317 32.1831 48.8628 32.6605L47.5625 33.7373C47.0038 34.2046 46.1708 34.1234 45.7035 33.5748L33.5739 19.3932C33.3403 19.1291 32.9441 19.0783 32.6596 19.3018L17.8584 30.6389C17.2793 31.0859 16.4565 30.9742 15.9993 30.4053L14.953 29.0846C14.4857 28.5056 14.5974 27.6523 15.1866 27.1951L32.7816 13.7043C33.3403 13.2777 34.1428 13.3589 34.6101 13.8973H34.6Z" fill="#D2FC99"/>
<path d="M46.7095 34.5401C46.1914 34.5401 45.6733 34.3267 45.3076 33.9001L33.1781 19.7185C33.1273 19.6575 33.0257 19.6474 32.9647 19.6982L18.1635 31.0353C17.3711 31.6448 16.2231 31.5026 15.6035 30.7204L14.5571 29.3998C14.2524 29.0137 14.1101 28.5261 14.1711 28.0283C14.232 27.5305 14.486 27.0937 14.8822 26.7991L32.467 13.2982C33.239 12.6988 34.3463 12.8207 34.9863 13.5623L49.4117 30.4258C49.7368 30.8017 49.8892 31.2893 49.8485 31.7769C49.8079 32.2645 49.5743 32.7217 49.1882 33.0366L47.8778 34.1134C47.5425 34.3979 47.126 34.5299 46.7095 34.5299V34.5401ZM33.0562 18.6417C33.3914 18.6417 33.7165 18.7839 33.9501 19.048L46.0797 33.2296C46.3743 33.5648 46.8822 33.6156 47.2276 33.3312L48.5381 32.2544C48.7108 32.1121 48.8124 31.909 48.8327 31.6855C48.853 31.462 48.7819 31.2486 48.6397 31.0759L34.2143 14.2125C33.9298 13.8772 33.432 13.8264 33.0866 14.0905L15.4917 27.5915C15.319 27.7236 15.2073 27.9267 15.1768 28.1401C15.1463 28.3636 15.2073 28.5769 15.3495 28.7598L16.3958 30.0804C16.6701 30.4359 17.1882 30.4969 17.5438 30.2226L32.3451 18.8855C32.5584 18.7229 32.8124 18.6417 33.0562 18.6417Z" fill="#191919"/>
<path d="M31.3096 43.0431C34.9901 43.0431 37.9738 40.0595 37.9738 36.379C37.9738 32.6985 34.9901 29.7148 31.3096 29.7148C27.6291 29.7148 24.6455 32.6985 24.6455 36.379C24.6455 40.0595 27.6291 43.0431 31.3096 43.0431Z" fill="#D2FC99"/>
<path d="M31.3295 43.5507C31.0755 43.5507 30.8215 43.5406 30.5676 43.5101C28.6577 43.3069 26.9511 42.3825 25.7422 40.8891C24.5333 39.3958 23.9847 37.5266 24.1879 35.6269C24.3911 33.7171 25.3155 32.0104 26.8088 30.8015C28.3022 29.5926 30.1714 29.0441 32.0711 29.2371C33.9809 29.4403 35.6876 30.3647 36.8965 31.858C38.1054 33.3514 38.6539 35.2206 38.4609 37.1203C38.2577 39.0301 37.3333 40.7368 35.84 41.9456C34.5498 42.992 32.9752 43.5406 31.3396 43.5406L31.3295 43.5507ZM31.3092 30.2123C29.9073 30.2123 28.5562 30.6898 27.4489 31.5837C26.1689 32.6199 25.3765 34.0929 25.2038 35.7285C25.0311 37.3641 25.5085 38.9691 26.5447 40.2491C27.5809 41.5291 29.0539 42.3215 30.6895 42.4942C32.325 42.6669 33.9301 42.1895 35.2101 41.1533C36.4901 40.1171 37.2825 38.6441 37.4552 37.0085C37.6279 35.3729 37.1504 33.7679 36.1142 32.4879C35.0781 31.2079 33.605 30.4155 31.9695 30.2428C31.746 30.2225 31.5327 30.2123 31.3092 30.2123Z" fill="#191919"/>
<path d="M31.2479 40.5435C31.126 40.5435 30.994 40.5435 30.8721 40.5231C29.8359 40.4114 28.881 39.8628 28.2613 39.0095C28.0987 38.786 28.1495 38.4609 28.373 38.2984C28.5965 38.1358 28.9216 38.1866 29.0841 38.4101C29.5311 39.0298 30.2219 39.426 30.9737 39.5073C31.7356 39.5885 32.4771 39.3447 33.0562 38.8266C33.2695 38.6438 33.5844 38.6539 33.7775 38.8673C33.9603 39.0806 33.94 39.3955 33.7368 39.5885C33.046 40.1981 32.1521 40.5435 31.2479 40.5435Z" fill="#191919"/>
</g>
<defs>
<clipPath id="clip0_4915_77356">
<rect width="64" height="64" fill="white"/>
</clipPath>
</defs>
</svg>
