<svg width="96" height="94" viewBox="0 0 96 94" fill="none" xmlns="http://www.w3.org/2000/svg">
<rect x="-0.00195312" width="96" height="94" rx="47" fill="#FFF3CD"/>
<mask id="path-2-inside-1_402_639" fill="white">
<path fill-rule="evenodd" clip-rule="evenodd" d="M25.3023 38.521C26.4444 33.083 31.2683 29 37.0459 29C41.2198 29 44.8961 31.131 47.0459 34.3644C49.1957 31.131 52.872 29 57.0459 29C62.816 29 67.6349 33.0725 68.7851 38.5H68.8053C70.972 44.8333 63.6459 58 47.0459 68C29.6651 58.0111 23.4886 44.8624 25.3023 38.521Z"/>
</mask>
<path fill-rule="evenodd" clip-rule="evenodd" d="M25.3023 38.521C26.4444 33.083 31.2683 29 37.0459 29C41.2198 29 44.8961 31.131 47.0459 34.3644C49.1957 31.131 52.872 29 57.0459 29C62.816 29 67.6349 33.0725 68.7851 38.5H68.8053C70.972 44.8333 63.6459 58 47.0459 68C29.6651 58.0111 23.4886 44.8624 25.3023 38.521Z" fill="#101010"/>
<path d="M25.3023 38.521L26.2637 38.796L26.2735 38.7616L26.2809 38.7266L25.3023 38.521ZM47.0459 34.3644L46.2132 34.9181L47.0459 36.1705L47.8786 34.9181L47.0459 34.3644ZM68.7851 38.5L67.8068 38.7073L67.9748 39.5H68.7851V38.5ZM68.8053 38.5L69.7515 38.1763L69.5201 37.5H68.8053V38.5ZM47.0459 68L46.5476 68.867L47.0578 69.1602L47.5619 68.8566L47.0459 68ZM26.2809 38.7266C27.3278 33.7421 31.751 30 37.0459 30V28C30.7857 28 25.561 32.424 24.3236 38.3155L26.2809 38.7266ZM37.0459 30C40.871 30 44.2408 31.9516 46.2132 34.9181L47.8786 33.8107C45.5513 30.3104 41.5686 28 37.0459 28V30ZM47.8786 34.9181C49.851 31.9516 53.2208 30 57.0459 30V28C52.5232 28 48.5405 30.3104 46.2132 33.8107L47.8786 34.9181ZM57.0459 30C62.334 30 66.7526 33.7324 67.8068 38.7073L69.7634 38.2927C68.5173 32.4126 63.2981 28 57.0459 28V30ZM68.8053 37.5H68.7851V39.5H68.8053V37.5ZM47.5619 68.8566C55.9669 63.7933 62.0613 57.9071 65.7894 52.4383C67.6528 49.7047 68.9391 47.0546 69.6165 44.6457C70.291 42.2473 70.3809 40.0161 69.7515 38.1763L67.8592 38.8237C68.3131 40.1506 68.2998 41.9402 67.6912 44.1043C67.0856 46.2579 65.9091 48.712 64.1368 51.3117C60.5935 56.5096 54.7249 62.2067 46.5299 67.1434L47.5619 68.8566ZM24.3408 38.2461C23.3167 41.8268 24.5841 47.0121 28.1396 52.4406C31.7273 57.9182 37.7405 63.8055 46.5476 68.867L47.5442 67.133C38.9705 62.2056 33.205 56.5241 29.8127 51.3448C26.3882 46.1164 25.4741 41.5567 26.2637 38.796L24.3408 38.2461Z" fill="#101010" mask="url(#path-2-inside-1_402_639)"/>
<mask id="path-4-inside-2_402_639" fill="white">
<path fill-rule="evenodd" clip-rule="evenodd" d="M27.3023 36.521C28.4444 31.083 33.2683 27 39.0459 27C43.2198 27 46.8961 29.131 49.0459 32.3644C51.1957 29.131 54.872 27 59.0459 27C64.816 27 69.6349 31.0725 70.7851 36.5H70.8053C72.972 42.8333 65.6459 56 49.0459 66C31.6651 56.0111 25.4886 42.8624 27.3023 36.521Z"/>
</mask>
<path fill-rule="evenodd" clip-rule="evenodd" d="M27.3023 36.521C28.4444 31.083 33.2683 27 39.0459 27C43.2198 27 46.8961 29.131 49.0459 32.3644C51.1957 29.131 54.872 27 59.0459 27C64.816 27 69.6349 31.0725 70.7851 36.5H70.8053C72.972 42.8333 65.6459 56 49.0459 66C31.6651 56.0111 25.4886 42.8624 27.3023 36.521Z" fill="#FF01C4"/>
<path d="M27.3023 36.521L28.2637 36.796L28.2735 36.7616L28.2809 36.7266L27.3023 36.521ZM49.0459 32.3644L48.2132 32.9181L49.0459 34.1705L49.8786 32.9181L49.0459 32.3644ZM70.7851 36.5L69.8068 36.7073L69.9748 37.5H70.7851V36.5ZM70.8053 36.5L71.7515 36.1763L71.5201 35.5H70.8053V36.5ZM49.0459 66L48.5476 66.867L49.0578 67.1602L49.5619 66.8566L49.0459 66ZM28.2809 36.7266C29.3278 31.7421 33.751 28 39.0459 28V26C32.7857 26 27.561 30.424 26.3236 36.3155L28.2809 36.7266ZM39.0459 28C42.871 28 46.2408 29.9516 48.2132 32.9181L49.8786 31.8107C47.5513 28.3104 43.5686 26 39.0459 26V28ZM49.8786 32.9181C51.851 29.9516 55.2208 28 59.0459 28V26C54.5232 26 50.5405 28.3104 48.2132 31.8107L49.8786 32.9181ZM59.0459 28C64.334 28 68.7526 31.7324 69.8068 36.7073L71.7634 36.2927C70.5173 30.4126 65.2981 26 59.0459 26V28ZM70.8053 35.5H70.7851V37.5H70.8053V35.5ZM49.5619 66.8566C57.9669 61.7933 64.0613 55.9071 67.7894 50.4383C69.6528 47.7047 70.9391 45.0546 71.6165 42.6457C72.291 40.2473 72.3809 38.0161 71.7515 36.1763L69.8592 36.8237C70.3131 38.1506 70.2998 39.9402 69.6912 42.1043C69.0856 44.2579 67.9091 46.712 66.1368 49.3117C62.5935 54.5096 56.7249 60.2067 48.5299 65.1434L49.5619 66.8566ZM26.3408 36.2461C25.3167 39.8268 26.5841 45.0121 30.1396 50.4406C33.7273 55.9182 39.7405 61.8055 48.5476 66.867L49.5442 65.133C40.9705 60.2056 35.205 54.5241 31.8127 49.3448C28.3882 44.1164 27.4741 39.5567 28.2637 36.796L26.3408 36.2461Z" fill="#101010" mask="url(#path-4-inside-2_402_639)"/>
<path d="M64.9314 41.5886C65.7041 41.9258 66.6198 41.5729 66.8042 40.7503C66.9864 39.9378 67.0413 39.0988 66.9641 38.2635C66.8398 36.9191 66.3773 35.6282 65.6197 34.5107C64.8621 33.3933 63.834 32.4857 62.6313 31.8726C61.8839 31.4916 61.0842 31.232 60.262 31.1005C59.4295 30.9673 58.7627 31.6873 58.7898 32.5299C58.817 33.3726 59.5371 34.0109 60.3482 34.241C60.6566 34.3284 60.9569 34.446 61.2447 34.5927C61.9884 34.9719 62.6241 35.533 63.0926 36.224C63.561 36.915 63.847 37.7133 63.9239 38.5446C63.9536 38.8662 63.9517 39.1887 63.9188 39.5076C63.8323 40.3463 64.1586 41.2515 64.9314 41.5886Z" fill="white"/>
</svg>
