<svg width="83" height="19" viewBox="0 0 83 19" fill="none" xmlns="http://www.w3.org/2000/svg">
<g clip-path="url(#clip0_4804_3622)">
<path d="M36.6912 10.8284L36.6037 10.7928C36.5037 10.753 36.3913 10.7969 36.3455 10.8954C36.208 11.1928 35.956 11.486 35.5978 11.7646C35.25 12.0348 34.7418 12.173 34.0879 12.173C33.311 12.173 32.6425 11.9405 32.1031 11.4798C31.5741 11.0273 31.3054 10.2838 31.3054 9.26796V9.17162H36.5808C36.6912 9.17162 36.7828 9.08155 36.7828 8.96845V8.91609C36.7828 8.33172 36.637 7.75783 36.3475 7.20698C36.056 6.64984 35.5915 6.18905 34.9688 5.83508C34.3503 5.48321 33.5693 5.30518 32.6487 5.30518C31.7282 5.30518 30.8889 5.49787 30.1829 5.87697C29.4727 6.25817 28.9145 6.80902 28.523 7.51068C28.1335 8.20815 27.9357 9.03757 27.9357 9.9759C27.9357 10.9142 28.1481 11.8044 28.5688 12.5165C28.9895 13.2287 29.5664 13.7774 30.2828 14.146C30.993 14.5126 31.7948 14.699 32.6654 14.699C34.0212 14.699 35.023 14.3136 35.6394 13.5554C36.2372 12.8202 36.6329 11.9803 36.8141 11.0567C36.8328 10.9603 36.7807 10.8661 36.6912 10.8284ZM32.3676 5.92305C32.984 5.92305 33.3464 6.63728 33.4506 8.04268H31.3492C31.445 6.95354 31.7095 5.92305 32.3676 5.92305Z" fill="#ECEDED"/>
<path d="M44.4615 5.50201C44.2137 5.38262 43.9304 5.32398 43.6201 5.32398C42.8974 5.32398 42.3018 5.51248 41.8519 5.88111C41.6499 6.04658 41.475 6.2267 41.3292 6.4194V5.49153C41.3292 5.42661 41.3 5.36796 41.2479 5.32816C41.1959 5.29046 41.1313 5.2779 41.0688 5.29675C39.7234 5.70098 38.3635 5.94185 37.0264 6.01306C36.9202 6.01935 36.8348 6.10732 36.8348 6.21623V6.28744C36.8348 6.34818 36.8619 6.40683 36.9077 6.44453C37.1493 6.64351 37.3263 6.82154 37.4325 6.97025C37.5325 7.11058 37.6033 7.29071 37.6449 7.50854C37.6887 7.74312 37.7116 8.08033 37.7116 8.5118V12.2547C37.7116 12.6736 37.6887 12.9877 37.6449 13.1909C37.6054 13.3731 37.5387 13.5218 37.445 13.6307C37.3388 13.7522 37.1576 13.9051 36.9035 14.0832C36.8494 14.1209 36.816 14.1837 36.816 14.2507V14.3219C36.816 14.435 36.9056 14.5251 37.0181 14.5251H42.3892C42.4996 14.5251 42.5913 14.435 42.5913 14.3219V14.2507C42.5913 14.1753 42.5496 14.1062 42.483 14.0706C42.1352 13.8905 41.8852 13.7355 41.7395 13.6119C41.6103 13.5009 41.5229 13.3606 41.4687 13.1783C41.4104 12.9815 41.3812 12.6715 41.3812 12.2568V7.52529C41.5291 7.26557 41.6957 7.23416 41.8123 7.23416C41.929 7.23416 42.1789 7.30537 42.6329 7.78082C43.0078 8.17458 43.366 8.63119 43.6992 9.13805C43.7367 9.1946 43.7992 9.23021 43.8679 9.23021H43.9387C44.0408 9.23021 44.1262 9.15481 44.1387 9.05427L44.5781 5.71774C44.5885 5.62977 44.5427 5.54599 44.4636 5.50829L44.4615 5.50201Z" fill="#ECEDED"/>
<path d="M51.578 12.3363L51.5071 12.2839C51.4259 12.2232 51.3114 12.2315 51.2406 12.3048C50.9303 12.6274 50.6199 12.7908 50.3138 12.7908C49.9035 12.7908 49.3578 12.6546 49.3578 11.4754L49.3724 6.66856H50.7845C50.8678 6.66856 50.9427 6.6162 50.9719 6.5387L51.2489 5.82448C51.2739 5.76164 51.2656 5.69252 51.2281 5.63597C51.1906 5.58151 51.1281 5.548 51.0615 5.548H49.3766V3.07231C49.3766 2.9592 49.287 2.86914 49.1746 2.86914H49.1038C49.0413 2.86914 48.985 2.89637 48.9455 2.94664C48.5498 3.44722 47.9729 3.97294 47.2314 4.50494C46.4817 5.04323 45.7528 5.49355 45.0634 5.83914C44.9947 5.87265 44.9509 5.94386 44.9509 6.02136V6.05696C44.9509 6.17007 45.0405 6.26013 45.1529 6.26013H45.7403V12.0053C45.7403 12.885 45.9964 13.5636 46.5004 14.0181C46.9982 14.4685 47.6376 14.6968 48.3998 14.6968C49.1621 14.6968 49.8535 14.481 50.4013 14.0538C50.9365 13.6369 51.3509 13.1447 51.6342 12.5918C51.6779 12.5038 51.655 12.397 51.5759 12.3363H51.578Z" fill="#ECEDED"/>
<path d="M27.1505 13.6223C27.0484 13.5134 26.9734 13.3668 26.9297 13.1845C26.8818 12.9835 26.8568 12.6693 26.8568 12.2525V6.67065C26.8568 6.67065 26.8631 6.67065 26.8672 6.66855H28.4646C28.5479 6.66855 28.6229 6.61619 28.6521 6.53869L28.9291 5.82447C28.954 5.76164 28.9457 5.69252 28.9082 5.63597C28.8707 5.57941 28.8083 5.548 28.7416 5.548H26.7714C26.3299 4.76884 25.9904 4.06928 25.7655 3.46816C25.5343 2.85238 25.4177 2.36227 25.4177 2.01249C25.4177 1.66271 25.5052 1.57474 25.5885 1.54123C25.6051 1.53494 25.6218 1.53075 25.6364 1.52866C25.6572 1.52656 25.6739 1.52656 25.6905 1.52656C25.7176 1.52656 25.753 1.53075 25.7946 1.54541C25.8176 1.55379 25.8405 1.56426 25.8675 1.57893C26.0071 1.65433 26.2049 1.83027 26.4632 2.22194C26.8006 2.73299 27.1171 3.33202 27.4025 4.00016C27.4337 4.07347 27.5066 4.12164 27.5878 4.12164H27.6399C27.6982 4.12164 27.7544 4.09651 27.794 4.05043L29.6372 1.87844C29.6788 1.82817 29.6955 1.76115 29.6788 1.69622C29.6621 1.63338 29.6163 1.58102 29.5559 1.55589C29.0686 1.36529 28.5354 1.19563 27.9689 1.05321C26.0383 0.567284 24.6742 0.904498 23.939 2.09627C23.4412 2.90265 23.1892 4.01901 23.1892 5.41604V5.5459H22.5124C22.402 5.5459 22.3104 5.63597 22.3104 5.74907V6.46329C22.3104 6.57639 22.3999 6.66646 22.5124 6.66646H23.1892V12.2483C23.1892 12.6672 23.1663 12.9814 23.1226 13.1845C23.083 13.3668 23.0164 13.5155 22.9227 13.6244C22.8164 13.7459 22.6352 13.8988 22.3812 14.0768C22.327 14.1145 22.2958 14.1773 22.2958 14.2443V14.3156C22.2958 14.4266 22.3853 14.5187 22.4978 14.5187H27.642C27.7523 14.5187 27.844 14.4287 27.844 14.3156V14.2443C27.844 14.1752 27.8086 14.1103 27.7503 14.0726C27.4733 13.8946 27.2733 13.7417 27.1546 13.6181L27.1505 13.6223Z" fill="#ECEDED"/>
<path d="M54.2105 4.86543C54.6937 4.86543 55.1185 4.69578 55.4726 4.36066C55.8287 4.02135 56.0099 3.61292 56.0099 3.14585C56.0099 2.67878 55.8287 2.26826 55.4726 1.93104C55.1185 1.59592 54.6958 1.42627 54.2105 1.42627C53.7252 1.42627 53.2837 1.59592 52.9317 1.93104C52.5756 2.27035 52.3944 2.67878 52.3944 3.14585C52.3944 3.61292 52.5756 4.02345 52.9317 4.36066C53.2858 4.69578 53.7148 4.86543 54.2105 4.86543Z" fill="#ECEDED"/>
<path d="M64.5133 3.57295C64.9986 3.57295 65.4214 3.4033 65.7754 3.06818C66.1316 2.72887 66.3128 2.32044 66.3128 1.85337C66.3128 1.3863 66.1316 0.975777 65.7754 0.638563C65.4214 0.303443 64.9986 0.133789 64.5133 0.133789C64.0281 0.133789 63.5866 0.303443 63.2346 0.638563C62.8785 0.977871 62.6973 1.3863 62.6973 1.85337C62.6973 2.32044 62.8785 2.73096 63.2346 3.06818C63.5886 3.4033 64.0177 3.57295 64.5133 3.57295Z" fill="#ECEDED"/>
<path d="M66.694 13.6286C66.6003 13.5197 66.5316 13.3731 66.4941 13.1887C66.4503 12.9877 66.4295 12.6714 66.4295 12.2525V4.13005C66.4295 4.06512 66.4003 4.00648 66.3483 3.96668C66.2983 3.92898 66.2317 3.91641 66.1713 3.93526C64.8342 4.32903 63.4555 4.57618 62.0726 4.66834C61.9664 4.67462 61.8851 4.76468 61.8851 4.8715V4.94272C61.8851 4.99927 61.908 5.05372 61.9497 5.09143C62.2184 5.33858 62.4016 5.53127 62.4912 5.65903C62.5745 5.77633 62.6391 5.95855 62.687 6.19941C62.7328 6.43609 62.7619 8.11378 62.7619 8.75679V12.2525C62.7619 12.6714 62.739 12.9856 62.6953 13.1887C62.6599 13.3479 62.6037 13.4799 62.5266 13.5846C62.412 13.7166 62.2413 13.8527 62.0268 13.8548C61.8018 13.859 61.6186 13.7061 61.4998 13.5679C61.429 13.4673 61.377 13.3416 61.3436 13.1887C61.2999 12.9856 61.277 12.6714 61.277 12.2525V1.16634C61.277 1.10141 61.2458 1.04067 61.1958 1.00297C61.1458 0.965268 61.0771 0.952701 61.0167 0.971551C59.7712 1.35484 58.3925 1.60618 56.918 1.72138C56.8139 1.72976 56.7326 1.81773 56.7326 1.92455V1.99576C56.7326 2.05022 56.7555 2.10467 56.7951 2.14237C57.0659 2.40419 57.2512 2.60107 57.3429 2.72464C57.4241 2.83565 57.4886 3.01159 57.5365 3.24408C57.5865 3.49542 57.6115 3.89966 57.6115 4.44842V12.2504C57.6115 12.6693 57.5886 12.9835 57.5449 13.1867C57.5074 13.3605 57.4428 13.5029 57.3574 13.6097C57.2429 13.727 57.0867 13.8443 56.8951 13.8401C56.5577 13.8339 56.3515 13.6035 56.2724 13.4317C56.239 13.3584 56.214 13.2767 56.1932 13.1867C56.1495 12.9835 56.1287 12.6693 56.1287 12.2504V5.49147C56.1287 5.42655 56.0995 5.3679 56.0474 5.3281C55.9975 5.2904 55.9308 5.27784 55.8704 5.29669C55.5518 5.39094 55.2435 5.48938 54.9395 5.58573C53.9669 5.89571 53.0505 6.18894 51.9987 6.26015C51.8925 6.26644 51.8113 6.3565 51.8113 6.46332V6.53453C51.8113 6.59109 51.8342 6.64554 51.8759 6.68324C52.0987 6.8885 52.1029 6.89479 52.1529 6.966L52.1904 7.02046C52.2737 7.13775 52.3382 7.31997 52.3861 7.56084C52.4361 7.81846 52.4611 8.2206 52.4611 8.75679V12.2525C52.4611 12.6714 52.4382 12.9856 52.3945 13.1887C52.3549 13.371 52.2882 13.5197 52.1945 13.6286C52.0883 13.7501 51.9071 13.903 51.653 14.081C51.5989 14.1187 51.5656 14.1815 51.5656 14.2486V14.3198C51.5656 14.4329 51.6551 14.5229 51.7676 14.5229H67.1272C67.2376 14.5229 67.3292 14.4329 67.3292 14.3198V14.2486C67.3292 14.1815 67.2959 14.1208 67.2417 14.081C66.9877 13.903 66.8044 13.7522 66.7003 13.6286H66.694Z" fill="#ECEDED"/>
<path d="M6.37174 2.45656C6.72787 2.0984 7.08817 1.91618 7.44014 1.91618C7.9983 1.91618 8.63767 2.29738 9.33745 3.05139C10.0685 3.83893 10.8265 4.84638 11.5888 6.04024C11.6263 6.09889 11.6909 6.13449 11.7596 6.13449H11.8304C11.8866 6.13449 11.9408 6.11145 11.9783 6.06747C12.0157 6.02558 12.0345 5.96903 12.0303 5.91248L11.6784 1.97692C11.67 1.88895 11.6055 1.81564 11.5201 1.79679C9.86436 1.44282 8.46689 1.2627 7.37141 1.2627C6.12807 1.2627 4.99301 1.52032 3.9975 2.02509C2.99366 2.53615 2.19183 3.3174 1.61285 4.34789C1.03596 5.37629 0.744385 6.65183 0.744385 8.13893C0.744385 9.62602 1.03179 10.8471 1.59619 11.8336C2.16476 12.8243 2.94576 13.5679 3.92044 14.0433C4.88472 14.5146 5.99894 14.7513 7.22979 14.7513C7.9254 14.7513 8.67933 14.6968 9.46865 14.59C10.2559 14.4832 10.9411 14.3575 11.5097 14.2151C11.593 14.1941 11.6534 14.1229 11.6617 14.0349L12.0137 10.0093C12.0178 9.95276 11.9991 9.89621 11.9616 9.85432C11.9241 9.81243 11.87 9.78939 11.8137 9.78939H11.7429C11.6721 9.78939 11.6075 9.82709 11.5701 9.88783C10.8661 11.0607 10.1289 12.0745 9.38118 12.9018C8.66475 13.6956 8.01704 14.0978 7.45889 14.0978C7.09859 14.0978 6.72995 13.8988 6.36965 13.5092C5.99061 13.1008 5.66988 12.4243 5.41579 11.5006C5.15755 10.5644 5.02842 9.36211 5.02842 7.92738C5.02842 6.49265 5.16171 5.27156 5.42413 4.36464C5.68238 3.47239 6.00102 2.83147 6.37382 2.45656H6.37174Z" fill="#ECEDED"/>
<path d="M21.117 6.76506C20.2339 5.988 19.0468 5.59424 17.5869 5.59424C16.1269 5.59424 14.8378 6.01523 13.9318 6.84675C13.0196 7.68455 12.5593 8.87422 12.5593 10.3864C12.5593 11.8987 13.0133 13.0276 13.911 13.8068C14.7982 14.5775 15.9895 14.9692 17.4473 14.9692C18.9052 14.9692 20.1944 14.5503 21.0941 13.7251C22 12.8936 22.4582 11.706 22.4582 10.1938C22.4582 8.68153 22.0063 7.5505 21.117 6.76716V6.76506ZM19.7882 13.4926C19.7299 13.8989 19.5633 14.1503 19.2863 14.2466C18.8656 14.3932 18.3991 14.1524 17.8847 13.5219C17.3703 12.8915 16.8954 12.1291 16.4643 11.2326C16.0311 10.3383 15.7062 9.57169 15.4875 8.93915C15.2272 8.18304 15.1272 7.60077 15.1918 7.19234C15.2564 6.78391 15.4188 6.53257 15.6854 6.44042C16.1061 6.2938 16.5705 6.53676 17.0787 7.1693C17.5869 7.80184 18.0617 8.56633 18.5032 9.46696C18.9427 10.3655 19.2738 11.1321 19.4925 11.7667C19.7487 12.5124 19.8486 13.0883 19.7903 13.4947L19.7882 13.4926Z" fill="#ECEDED"/>
<path d="M82.0535 5.55254H79.2107C79.1003 5.55254 79.0087 5.6426 79.0087 5.7557V5.82692C79.0087 5.88556 79.0337 5.94002 79.0753 5.97772C79.5293 6.38615 79.8188 6.76944 79.948 7.12132L78.588 10.0033L77.3342 7.54859C77.1989 7.29725 77.1301 7.08571 77.1301 6.92234C77.1301 6.65424 77.3738 6.33378 77.8382 5.99238C77.8903 5.95468 77.9215 5.89394 77.9215 5.82901V5.7578C77.9215 5.6447 77.832 5.55463 77.7195 5.55463H71.2404V3.07475C71.2404 2.96165 71.1508 2.87158 71.0383 2.87158H70.9675C70.905 2.87158 70.8488 2.89881 70.8092 2.94908C70.4135 3.44966 69.8366 3.97538 69.0952 4.50738C68.3455 5.04567 67.6165 5.49599 66.9272 5.84158C66.8584 5.87509 66.8147 5.9463 66.8147 6.0238V6.05941C66.8147 6.17251 66.9043 6.26257 67.0167 6.26257H67.604V12.0078C67.604 12.8875 67.8602 13.5661 68.3642 14.0206C68.862 14.4709 69.5013 14.6992 70.2636 14.6992C71.0258 14.6992 71.7173 14.4835 72.265 14.0562C72.8003 13.6394 73.2147 13.1472 73.498 12.5942C73.5438 12.5063 73.5188 12.3994 73.4396 12.3387L73.3688 12.2863C73.2876 12.2256 73.1731 12.234 73.1023 12.3073C72.7919 12.6298 72.4816 12.7932 72.1776 12.7932C71.7673 12.7932 71.2216 12.6571 71.2216 11.4779L71.2362 6.69613H72.7815C72.9044 6.86579 73.0231 7.05429 73.1314 7.26374L76.6386 14.075L76.5928 14.1714C76.3616 14.651 75.9055 15.3171 75.4911 15.5726C75.1141 15.8051 74.6997 15.9894 74.1373 15.9894C73.8583 15.9894 73.5438 15.9601 73.2043 15.9035C73.1397 15.8931 73.0752 15.914 73.0294 15.9601L72.9773 16.0125C72.9065 16.0837 72.8982 16.1968 72.9585 16.2785L74.381 18.1677C74.4206 18.2201 74.481 18.2473 74.5414 18.2473C74.5809 18.2473 74.6226 18.2347 74.658 18.2096C75.1599 17.8493 75.6848 17.355 76.22 16.7392C76.7573 16.1214 77.228 15.3841 77.6195 14.5484C78.436 12.8351 79.2294 11.1218 79.973 9.45877C80.3083 8.71313 80.4978 8.28795 80.5457 8.18322C80.5457 8.17904 80.5499 8.17485 80.5519 8.17275C80.7769 7.68473 80.9976 7.30563 81.2017 7.0501C81.4121 6.7862 81.7474 6.42385 82.1972 5.97144C82.2347 5.93374 82.2556 5.88137 82.2556 5.82692V5.7557C82.2556 5.6426 82.166 5.55254 82.0535 5.55254Z" fill="#ECEDED"/>
</g>
<defs>
<clipPath id="clip0_4804_3622">
<rect width="81.5112" height="18.1132" fill="white" transform="translate(0.744385 0.131836)"/>
</clipPath>
</defs>
</svg>
