<svg width="64" height="64" viewBox="0 0 64 64" fill="none" xmlns="http://www.w3.org/2000/svg">
<g clip-path="url(#clip0_4915_77404)">
<path d="M32.2132 0.507812H31.7865C14.5118 0.507812 0.507812 14.5118 0.507812 31.7865V32.2132C0.507812 49.488 14.5118 63.4919 31.7865 63.4919H32.2132C49.488 63.4919 63.4919 49.488 63.4919 32.2132V31.7865C63.4919 14.5118 49.488 0.507812 32.2132 0.507812Z" fill="#9C70FF"/>
<path d="M32.2133 1.01587C49.1784 1.01587 62.9841 14.8216 62.9841 31.7867V32.2235C62.9841 49.1886 49.1784 62.9943 32.2133 62.9943H31.7765C14.8216 62.9841 1.01587 49.1784 1.01587 32.2133V31.7765C1.01587 14.8216 14.8216 1.01587 31.7867 1.01587H32.2235M32.2133 0H31.7765C14.2324 0 0 14.2324 0 31.7867V32.2235C0 49.7676 14.2324 64 31.7867 64H32.2235C49.7778 64 64.0102 49.7676 64.0102 32.2133V31.7765C64 14.2324 49.7676 0 32.2133 0Z" fill="#191919"/>
<path d="M47.4117 18.1036L42.6167 17.5957L42.7386 16.4477C42.7691 16.1328 42.6777 15.828 42.4847 15.5842C42.2917 15.3404 42.0072 15.188 41.6923 15.1576L28.4352 13.7658C27.8053 13.6947 27.2161 14.1722 27.145 14.8122L27.0231 15.9601L22.2282 15.4522C21.7304 15.4014 21.2631 15.5436 20.8771 15.8484C20.491 16.1531 20.2574 16.6001 20.2066 17.0877L16.9964 47.5842C16.9456 48.0718 17.0879 48.5493 17.3926 48.9353C17.6974 49.3214 18.1444 49.555 18.632 49.6058L43.8256 52.2572C43.8967 52.2572 43.9577 52.2674 44.0186 52.2674C44.4352 52.2674 44.8415 52.1252 45.1767 51.861C45.5628 51.5563 45.7964 51.1093 45.8472 50.6217L49.0574 20.1252C49.1691 19.1195 48.4275 18.2052 47.4218 18.1036H47.4117Z" fill="#191919"/>
<path d="M19.6769 16.1372L16.4711 46.6384C16.3943 47.3694 16.9246 48.0242 17.6555 48.101L42.8526 50.7493C43.5836 50.8262 44.2384 50.2959 44.3152 49.5649L47.521 19.0637C47.5979 18.3328 47.0676 17.678 46.3366 17.6011L21.1396 14.9528C20.4086 14.876 19.7538 15.4063 19.6769 16.1372Z" fill="white"/>
<path d="M43.003 51.2619C42.9421 51.2619 42.871 51.2619 42.81 51.2517L17.6164 48.6003C17.1287 48.5495 16.6919 48.3057 16.377 47.9298C16.0722 47.5438 15.93 47.0663 15.9808 46.5787L19.191 16.0822C19.2418 15.5946 19.4856 15.1577 19.8614 14.8428C20.2475 14.538 20.7148 14.3958 21.2125 14.4466L46.4062 17.098C47.4119 17.1996 48.1535 18.1139 48.0418 19.1196L44.8316 49.6161C44.7808 50.1038 44.537 50.5406 44.1611 50.8555C43.8259 51.1196 43.4297 51.2619 43.003 51.2619ZM21.0094 15.4422C20.8164 15.4422 20.6437 15.5031 20.4913 15.625C20.3186 15.7673 20.217 15.9603 20.1865 16.1838L16.9764 46.6803C16.956 46.9038 17.017 47.1171 17.1592 47.2898C17.3014 47.4625 17.4945 47.5641 17.7179 47.5946L42.9116 50.246C43.1351 50.2663 43.3484 50.2053 43.5211 50.0631C43.6938 49.9209 43.7954 49.7279 43.8259 49.5044L47.036 19.0079C47.0868 18.5507 46.7516 18.1444 46.3046 18.1038L21.111 15.4523C21.111 15.4523 21.05 15.4523 21.0195 15.4523L21.0094 15.4422Z" fill="#191919"/>
<path d="M26.6322 13.8479L26.2849 17.1516C26.2462 17.5198 26.5134 17.8497 26.8816 17.8884L40.1369 19.2816C40.5052 19.3203 40.8351 19.0532 40.8738 18.6849L41.221 15.3812C41.2597 15.0129 40.9926 14.683 40.6243 14.6443L27.369 13.2511C27.0008 13.2124 26.6709 13.4796 26.6322 13.8479Z" fill="#D2FC99"/>
<path d="M40.1992 19.7998C40.1992 19.7998 40.1179 19.7998 40.0773 19.7998L26.8201 18.4081C26.5052 18.3776 26.2309 18.2252 26.0278 17.9814C25.8246 17.7376 25.7433 17.4329 25.7738 17.1179L26.1192 13.8062C26.1903 13.1662 26.7693 12.6786 27.4093 12.7598L40.6665 14.1516C40.9814 14.1821 41.2557 14.3344 41.4589 14.5783C41.662 14.8221 41.7433 15.1268 41.7128 15.4417L41.3674 18.7535C41.3065 19.3529 40.7884 19.81 40.1992 19.81V19.7998ZM27.2874 13.7554C27.2062 13.7554 27.1351 13.8163 27.1249 13.8976L26.7795 17.2094C26.7795 17.3008 26.8303 17.3719 26.9217 17.3821L40.1789 18.7738C40.25 18.7738 40.3414 18.723 40.3516 18.6316L40.697 15.3198C40.697 15.2284 40.6462 15.1573 40.5547 15.1471L27.2976 13.7554H27.2773H27.2874Z" fill="#191919"/>
<path d="M38.7973 31.9909L38.4722 35.0893C38.4316 35.4551 38.1065 35.7192 37.7408 35.6785L33.982 35.2824L33.5859 39.0411C33.5452 39.4068 33.2201 39.6709 32.8544 39.6303L29.756 39.3052C29.3903 39.2646 29.1262 38.9395 29.1668 38.5738L29.563 34.8151L25.8043 34.4189C25.4386 34.3782 25.1744 34.0532 25.2151 33.6874L25.5401 30.589C25.5808 30.2233 25.9059 29.9592 26.2716 29.9998L30.0303 30.396L30.4265 26.6373C30.4671 26.2716 30.7922 26.0074 31.1579 26.0481L34.2563 26.3732C34.622 26.4138 34.8862 26.7389 34.8455 27.1046L34.4493 30.8633L38.2081 31.2595C38.5738 31.3001 38.8379 31.6252 38.7973 31.9909Z" fill="#D2FC99"/>
<path d="M32.9258 40.148C32.9258 40.148 32.8445 40.148 32.8039 40.148L29.7055 39.8229C29.3906 39.7924 29.1163 39.64 28.9131 39.3962C28.7099 39.1524 28.6286 38.8477 28.6591 38.5327L29.0045 35.2819L25.7537 34.9365C25.4388 34.9061 25.1645 34.7537 24.9613 34.5099C24.7582 34.2661 24.6769 33.9613 24.7074 33.6464L25.0325 30.548C25.0629 30.2331 25.2153 29.9588 25.4591 29.7556C25.7029 29.5524 26.0077 29.461 26.3226 29.5016L29.5734 29.847L29.9188 26.5962C29.9899 25.9562 30.5791 25.4686 31.209 25.5499L34.3074 25.875C34.6223 25.9054 34.8966 26.0578 35.0998 26.3016C35.3029 26.5454 35.3842 26.8502 35.3537 27.1651L35.0083 30.4159L38.2591 30.7613C38.8991 30.8324 39.3766 31.4115 39.3055 32.0515L38.9804 35.1499C38.9499 35.4648 38.7975 35.7391 38.5537 35.9423C38.3099 36.1353 38.0153 36.2369 37.6902 36.1962L34.4394 35.8508L34.094 39.1016C34.0636 39.4166 33.9112 39.6908 33.6674 39.894C33.454 40.0667 33.2001 40.1581 32.9258 40.1581V40.148ZM26.2007 30.5073C26.2007 30.5073 26.1194 30.5277 26.0991 30.548C26.0788 30.5683 26.0483 30.5988 26.0382 30.6496L25.7131 33.748C25.7131 33.8089 25.7334 33.8496 25.7436 33.8597C25.7639 33.88 25.7944 33.9105 25.8452 33.9207L30.1118 34.3677L29.6648 38.6343C29.6648 38.7054 29.736 38.7969 29.8071 38.807L32.9055 39.1321C32.9563 39.1321 33.0071 39.1118 33.0172 39.1016C33.0375 39.0813 33.068 39.0508 33.0782 39L33.5252 34.7334L37.7918 35.1804C37.8731 35.1804 37.9544 35.1092 37.9645 35.0381L38.2896 31.9397C38.2896 31.8483 38.2388 31.7772 38.1474 31.767L33.8807 31.32L34.3277 27.0534C34.3277 26.9924 34.3074 26.9518 34.2972 26.9416C34.2769 26.9213 34.2464 26.8908 34.1956 26.8807L31.0972 26.5556C31.0261 26.5556 30.9347 26.6064 30.9245 26.6978L30.4775 30.9645L26.2109 30.5175H26.1906L26.2007 30.5073Z" fill="#191919"/>
</g>
<defs>
<clipPath id="clip0_4915_77404">
<rect width="64" height="64" fill="white"/>
</clipPath>
</defs>
</svg>
