<svg width="33" height="32" viewBox="0 0 33 32" fill="none" xmlns="http://www.w3.org/2000/svg">
<path d="M26.4845 3.29319L9.57454 1.51319C8.21454 1.37319 6.97455 2.36319 6.82454 3.74319L4.52455 25.6232C4.52455 25.6232 4.52455 25.6632 4.52455 25.6832C4.52455 25.7332 4.50455 25.7832 4.50455 25.8332C4.47455 27.1232 5.50455 28.2432 6.85455 28.3832L22.6545 30.0432C22.6545 30.0432 22.6945 30.0432 22.7045 30.0432C22.8145 30.0432 22.9345 30.0032 23.0145 29.9332C23.1145 29.8532 23.1845 29.7332 23.1945 29.5932L23.5645 26.1132L24.0645 26.1632C24.1145 26.1632 24.1745 26.1632 24.2245 26.1632C24.5645 26.1632 24.8945 26.0432 25.1645 25.8332C25.4745 25.5832 25.6745 25.2232 25.7145 24.8232L27.8045 4.93319C27.8945 4.11319 27.2945 3.37319 26.4745 3.28319L26.4845 3.29319Z" fill="#191919"/>
<path d="M22.6442 25.0628L22.2242 29.0428L6.42418 27.3828C5.37418 27.2728 4.49418 26.4028 4.52418 25.3428C4.53418 24.7228 4.82418 24.1828 5.27418 23.8228C5.67418 23.5028 6.19418 23.3328 6.73418 23.3928L22.6442 25.0628Z" fill="white"/>
<path d="M22.2241 29.5431C22.2241 29.5431 22.1841 29.5431 22.1741 29.5431L6.37408 27.8831C5.02408 27.7431 3.99408 26.6231 4.02408 25.3331C4.04408 24.5931 4.38408 23.9031 4.95408 23.4331C5.46408 23.0131 6.12408 22.8231 6.78408 22.8931L22.6941 24.5631C22.9641 24.5931 23.1641 24.8331 23.1341 25.1131L22.7141 29.0931C22.7041 29.2231 22.6341 29.3431 22.5341 29.4331C22.4441 29.5031 22.3341 29.5431 22.2241 29.5431ZM6.51408 23.8831C6.17408 23.8831 5.84408 23.9931 5.58408 24.2131C5.23408 24.4931 5.03408 24.9031 5.02408 25.3531C5.00408 26.1231 5.64408 26.7931 6.47408 26.8831L21.7741 28.4931L22.0841 25.5131L6.66408 23.8931C6.61408 23.8931 6.55408 23.8931 6.50408 23.8931L6.51408 23.8831Z" fill="#191919"/>
<path d="M26.8244 4.39387L24.7344 24.2839C24.6744 24.8339 24.1844 25.2339 23.6344 25.1739L6.72441 23.3939C6.17441 23.3339 5.65441 23.5039 5.26441 23.8239C4.87441 24.1439 4.58441 24.6239 4.52441 25.1739L6.83441 3.29387C6.95441 2.19387 7.93441 1.39387 9.03441 1.51387L25.9444 3.29387C26.4944 3.35387 26.8944 3.84387 26.8344 4.39387H26.8244Z" fill="white"/>
<path d="M23.7442 25.6731C23.6942 25.6731 23.6342 25.6731 23.5842 25.6731L6.67423 23.8931C6.28423 23.8531 5.88423 23.9631 5.57423 24.2131C5.26423 24.4631 5.06423 24.8231 5.02423 25.2231C4.99423 25.5031 4.75423 25.7031 4.47423 25.6731C4.20423 25.6431 4.00423 25.4031 4.03423 25.1231L6.33423 3.24308C6.47423 1.87308 7.71423 0.873079 9.08423 1.01308L25.9942 2.79308C26.8142 2.88308 27.4142 3.62308 27.3242 4.44308L25.2342 24.3331C25.1942 24.7331 24.9942 25.0931 24.6842 25.3431C24.4142 25.5631 24.0842 25.6731 23.7442 25.6731ZM6.51423 22.8831C6.60423 22.8831 6.69423 22.8831 6.78423 22.8931L23.6942 24.6731C23.8242 24.6831 23.9542 24.6531 24.0642 24.5631C24.1742 24.4731 24.2342 24.3631 24.2442 24.2231L26.3342 4.33308C26.3642 4.06308 26.1642 3.81308 25.8842 3.78308L8.97423 2.00308C8.14423 1.91308 7.41423 2.51308 7.32423 3.34308L5.23423 23.2331C5.61423 23.0031 6.05423 22.8831 6.51423 22.8831Z" fill="#191919"/>
<path d="M21.9538 2.87258L20.8037 13.8126L17.5837 11.0126L13.8438 13.0826L14.9937 2.14258L21.9538 2.87258Z" fill="#D2FC99"/>
<path d="M20.8038 14.3134C20.6838 14.3134 20.5638 14.2734 20.4738 14.1934L17.5138 11.6234L14.0838 13.5234C13.9138 13.6134 13.7238 13.6034 13.5638 13.5034C13.4038 13.4034 13.3238 13.2234 13.3438 13.0334L14.4938 2.09337C14.5238 1.82337 14.7738 1.62337 15.0438 1.65337L22.0038 2.38337C22.1338 2.39337 22.2538 2.46337 22.3438 2.56337C22.4238 2.66337 22.4638 2.79337 22.4538 2.93337L21.3038 13.8734C21.2838 14.0634 21.1638 14.2134 20.9938 14.2834C20.9338 14.3034 20.8738 14.3134 20.8138 14.3134H20.8038ZM17.5838 10.5134C17.7038 10.5134 17.8138 10.5534 17.9138 10.6334L20.4138 12.8034L21.4138 3.31337L15.4438 2.68337L14.4438 12.1734L17.3438 10.5734C17.4238 10.5334 17.5038 10.5134 17.5838 10.5134Z" fill="#191919"/>
</svg>
