<svg width="33" height="32" viewBox="0 0 33 32" fill="none" xmlns="http://www.w3.org/2000/svg">
<path d="M14.6434 2.34008C14.3834 2.34008 14.1834 2.54008 14.1534 2.79008L13.1234 2.68008C13.1534 2.40008 12.9534 2.16008 12.6734 2.13008C12.3934 2.10008 12.1534 2.30008 12.1234 2.58008L11.1334 2.48008C11.1634 2.20008 10.9634 1.96008 10.6834 1.93008C10.4134 1.90008 10.1634 2.10008 10.1334 2.38008L9.12345 2.28008C9.15345 2.03008 8.98345 1.79008 8.73345 1.74008C8.46345 1.68008 8.19345 1.86008 8.14345 2.13008L6.61345 9.70008C6.44345 11.2601 7.20345 12.7301 8.51345 13.4701L6.70345 27.3301C6.64345 27.9401 6.80345 28.5401 7.16345 29.0201C7.53345 29.5101 8.07345 29.8201 8.67345 29.8801L8.84345 29.9001C8.92345 29.9001 8.99345 29.9101 9.06345 29.9101C10.1934 29.9101 11.1734 29.0101 11.3034 27.8001L12.4134 13.8801C13.8534 13.4301 14.8934 12.1501 15.0634 10.5401L15.1334 2.87008C15.1334 2.59008 14.9134 2.37008 14.6334 2.37008L14.6434 2.34008Z" fill="#191919"/>
<path d="M25.9435 3.94921C25.5935 3.63921 25.1235 3.51921 24.6635 3.60921C22.5735 4.02921 20.9635 5.80921 20.6635 8.02921L19.3635 17.5592C19.2635 18.2392 19.4835 18.9192 19.9635 19.3692L20.8435 20.2092C21.0935 20.4492 21.2035 20.7992 21.1435 21.1592L19.9335 28.6792C19.8635 29.3092 20.0535 29.9192 20.4435 30.4092C20.8335 30.8892 21.3935 31.1892 22.0935 31.2692C22.1735 31.2692 22.2535 31.2792 22.3335 31.2792C23.5135 31.2792 24.5335 30.3792 24.6635 29.1592L26.4335 5.18921C26.4735 4.70921 26.2835 4.25921 25.9235 3.93921L25.9435 3.94921Z" fill="#191919"/>
<path d="M14.1337 2.34094L14.0637 10.0109C13.9037 11.5309 12.8137 12.6809 11.4437 12.9609L10.3037 27.2409C10.2037 28.2309 9.35372 28.9809 8.39372 28.8809L8.22372 28.8609C7.26372 28.7609 6.59372 27.8509 6.69372 26.8609L8.54372 12.6609C7.27372 12.1009 6.43372 10.7509 6.59372 9.23094L8.11372 1.71094M10.1137 1.92094L9.54372 7.35094L10.1137 1.92094ZM12.1037 2.13094L11.5337 7.56094L12.1037 2.13094Z" fill="white"/>
<path d="M14.1337 2.34094L14.0637 10.0109C13.9037 11.5309 12.8137 12.6809 11.4437 12.9609L10.3037 27.2409C10.2037 28.2309 9.35372 28.9809 8.39372 28.8809L8.22372 28.8609C7.26372 28.7609 6.59372 27.8509 6.69372 26.8609L8.54372 12.6609C7.27372 12.1009 6.43372 10.7509 6.59372 9.23094L8.11372 1.71094M10.1137 1.92094L9.54372 7.35094M12.1037 2.13094L11.5337 7.56094" stroke="#191919" stroke-miterlimit="10" stroke-linecap="round"/>
<path d="M25.4534 4.66177C25.5034 4.00177 24.9134 3.47177 24.2634 3.60177C22.4334 3.97177 20.9334 5.54177 20.6534 7.60177L19.3534 17.1418C19.2734 17.6518 19.4434 18.1718 19.8134 18.5218L20.6934 19.3618C21.0634 19.7118 21.2334 20.2318 21.1434 20.7518L19.9434 28.2518C19.8334 29.2618 20.5634 30.1718 21.5734 30.2818H21.6634C22.6734 30.3918 23.5734 29.6518 23.6834 28.6418L25.4534 4.67177V4.66177Z" fill="white" stroke="#191919" stroke-miterlimit="10" stroke-linecap="round"/>
</svg>
