<svg width="33" height="32" viewBox="0 0 33 32" fill="none" xmlns="http://www.w3.org/2000/svg">
<path d="M28.0653 25.3618L24.4153 24.9818C26.7053 22.8518 28.1253 20.0018 28.4553 16.8618C29.2053 9.73181 24.0153 3.32181 16.8853 2.57181C9.74531 1.81181 3.34531 7.01181 2.59531 14.1418C2.23531 17.5918 3.23531 20.9818 5.42531 23.6818C7.59531 26.3618 10.6753 28.0418 14.1853 28.4318C14.2053 28.4318 14.2353 28.4318 14.2553 28.4418L27.5953 29.8418C27.6453 29.8418 27.7053 29.8418 27.7553 29.8418C28.0953 29.8418 28.4253 29.7218 28.6953 29.5118C29.0053 29.2618 29.2053 28.9018 29.2453 28.5018L29.4053 27.0118C29.4953 26.1918 28.8953 25.4518 28.0753 25.3618H28.0653Z" fill="#191919"/>
<path d="M22.3847 24.8214L14.0047 23.9414L13.8047 27.4414L27.1447 28.8414C27.6947 28.9014 28.1847 28.5014 28.2447 27.9514L28.4047 26.4614C28.4647 25.9114 28.0647 25.4214 27.5147 25.3614L22.3947 24.8214H22.3847Z" fill="white"/>
<path d="M27.255 29.3507C27.205 29.3507 27.145 29.3507 27.095 29.3507L13.755 27.9507C13.495 27.9207 13.295 27.6907 13.305 27.4207L13.505 23.9207C13.505 23.7807 13.575 23.6607 13.685 23.5707C13.785 23.4807 13.925 23.4407 14.065 23.4507L27.565 24.8707C28.385 24.9607 28.985 25.7007 28.895 26.5207L28.735 28.0107C28.695 28.4107 28.495 28.7707 28.185 29.0207C27.915 29.2407 27.585 29.3507 27.245 29.3507H27.255ZM14.335 26.9907L27.205 28.3407C27.335 28.3507 27.465 28.3207 27.575 28.2307C27.675 28.1507 27.745 28.0307 27.755 27.8907L27.915 26.4007C27.945 26.1207 27.745 25.8807 27.475 25.8507L14.485 24.4907L14.345 26.9907H14.335Z" fill="#191919"/>
<path d="M15.0244 27.502C21.928 27.502 27.5244 21.9055 27.5244 15.002C27.5244 8.09839 21.928 2.50195 15.0244 2.50195C8.12085 2.50195 2.52441 8.09839 2.52441 15.002C2.52441 21.9055 8.12085 27.502 15.0244 27.502Z" fill="white"/>
<path d="M15.0448 28.0014C14.5848 28.0014 14.1248 27.9814 13.6648 27.9314C10.2148 27.5714 7.10485 25.8814 4.92485 23.1814C2.74485 20.4814 1.73485 17.0914 2.09485 13.6414C2.45485 10.1914 4.14485 7.08141 6.84485 4.90141C9.54485 2.72141 12.9248 1.71141 16.3848 2.07141C23.5148 2.82141 28.7048 9.23141 27.9548 16.3614C27.5948 19.8114 25.9048 22.9214 23.2048 25.1014C20.8648 26.9914 18.0148 28.0014 15.0448 28.0014ZM14.9948 3.00141C12.2548 3.00141 9.62485 3.93141 7.46485 5.68141C4.97485 7.70141 3.41485 10.5614 3.08485 13.7514C2.75485 16.9414 3.67485 20.0614 5.69485 22.5614C7.71485 25.0514 10.5748 26.6114 13.7648 26.9414C20.3448 27.6214 26.2648 22.8414 26.9548 16.2614C27.6448 9.68141 22.8548 3.76141 16.2748 3.07141C15.8448 3.03141 15.4248 3.00141 14.9948 3.00141Z" fill="#191919"/>
<path d="M15.0246 15.5512C15.3284 15.5512 15.5746 15.3049 15.5746 15.0012C15.5746 14.6974 15.3284 14.4512 15.0246 14.4512C14.7209 14.4512 14.4746 14.6974 14.4746 15.0012C14.4746 15.3049 14.7209 15.5512 15.0246 15.5512Z" fill="#191919"/>
<path d="M15.0249 16.0512C15.0249 16.0512 14.9549 16.0512 14.9149 16.0512C14.6349 16.0212 14.3849 15.8812 14.2049 15.6712C14.0249 15.4612 13.9449 15.1812 13.9749 14.9012C14.0049 14.6212 14.1349 14.3712 14.3549 14.1912C14.5749 14.0112 14.8449 13.9312 15.1249 13.9612C15.4049 13.9912 15.6549 14.1312 15.8349 14.3412C16.0149 14.5612 16.0949 14.8312 16.0649 15.1112C16.0049 15.6512 15.5549 16.0512 15.0249 16.0512Z" fill="#191919"/>
<path d="M15.7049 11.232C17.1961 11.232 18.4049 10.0232 18.4049 8.53203C18.4049 7.04086 17.1961 5.83203 15.7049 5.83203C14.2137 5.83203 13.0049 7.04086 13.0049 8.53203C13.0049 10.0232 14.2137 11.232 15.7049 11.232Z" fill="#D2FC99"/>
<path d="M15.7147 11.7314C15.6047 11.7314 15.4847 11.7314 15.3747 11.7114C13.6247 11.5314 12.3447 9.95143 12.5247 8.19143C12.7047 6.44143 14.2947 5.17143 16.0447 5.34143C16.8947 5.43143 17.6547 5.84143 18.1947 6.51143C18.7347 7.18143 18.9847 8.01143 18.8947 8.86143C18.8047 9.71143 18.3947 10.4714 17.7247 11.0114C17.1447 11.4814 16.4447 11.7214 15.7147 11.7214V11.7314ZM15.7147 6.33143C14.6047 6.33143 13.6447 7.17143 13.5247 8.30143C13.4647 8.88143 13.6347 9.46143 14.0047 9.91143C14.3747 10.3714 14.9047 10.6514 15.4847 10.7114C16.0647 10.7714 16.6447 10.6014 17.0947 10.2314C17.5547 9.86143 17.8347 9.33143 17.8947 8.75143C17.9547 8.17143 17.7847 7.59143 17.4147 7.14143C17.0447 6.68143 16.5247 6.40143 15.9347 6.34143C15.8547 6.34143 15.7747 6.33143 15.7047 6.33143H15.7147Z" fill="#191919"/>
<path d="M8.84453 17.0504C10.3357 17.0504 11.5445 15.8416 11.5445 14.3504C11.5445 12.8592 10.3357 11.6504 8.84453 11.6504C7.35336 11.6504 6.14453 12.8592 6.14453 14.3504C6.14453 15.8416 7.35336 17.0504 8.84453 17.0504Z" fill="#D2FC99"/>
<path d="M8.85446 17.5512C8.74446 17.5512 8.62446 17.5512 8.51446 17.5312C6.75446 17.3512 5.48446 15.7712 5.66446 14.0112C5.84446 12.2612 7.42446 10.9712 9.18446 11.1612C10.9445 11.3412 12.2145 12.9212 12.0345 14.6812C11.9445 15.5312 11.5345 16.2912 10.8645 16.8312C10.2845 17.3012 9.58446 17.5412 8.85446 17.5412V17.5512ZM8.85446 12.1512C7.74446 12.1512 6.78446 12.9912 6.66446 14.1212C6.60446 14.7012 6.77446 15.2812 7.14446 15.7312C7.51446 16.1912 8.04446 16.4712 8.62446 16.5312C9.20446 16.5912 9.78446 16.4212 10.2345 16.0512C10.6945 15.6812 10.9745 15.1512 11.0345 14.5712C11.1645 13.3612 10.2845 12.2812 9.07446 12.1512C8.99446 12.1512 8.92446 12.1412 8.84446 12.1412L8.85446 12.1512Z" fill="#191919"/>
<path d="M21.2049 18.3531C22.6961 18.3531 23.9049 17.1443 23.9049 15.6531C23.9049 14.162 22.6961 12.9531 21.2049 12.9531C19.7137 12.9531 18.5049 14.162 18.5049 15.6531C18.5049 17.1443 19.7137 18.3531 21.2049 18.3531Z" fill="#D2FC99"/>
<path d="M21.2049 18.8523C21.0949 18.8523 20.9749 18.8523 20.8649 18.8323C19.1149 18.6523 17.8349 17.0723 18.0149 15.3123C18.1049 14.4623 18.5149 13.7023 19.1849 13.1623C19.8549 12.6223 20.6849 12.3823 21.5349 12.4623C22.3849 12.5523 23.1449 12.9623 23.6849 13.6323C24.2249 14.2923 24.4649 15.1323 24.3849 15.9823C24.2949 16.8323 23.8849 17.6023 23.2149 18.1323C22.6349 18.6023 21.9349 18.8423 21.2049 18.8423V18.8523ZM21.1949 13.4523C20.6949 13.4523 20.2149 13.6223 19.8149 13.9423C19.3549 14.3123 19.0749 14.8323 19.0149 15.4223C18.8849 16.6323 19.7649 17.7123 20.9749 17.8423C21.5549 17.9023 22.1349 17.7323 22.5849 17.3623C23.0449 16.9923 23.3249 16.4623 23.3849 15.8823C23.4449 15.3023 23.2749 14.7223 22.9049 14.2723C22.5349 13.8123 22.0049 13.5323 21.4249 13.4723C21.3449 13.4723 21.2649 13.4623 21.1849 13.4623L21.1949 13.4523Z" fill="#191919"/>
<path d="M14.3445 24.1598C15.8357 24.1598 17.0445 22.9509 17.0445 21.4598C17.0445 19.9686 15.8357 18.7598 14.3445 18.7598C12.8534 18.7598 11.6445 19.9686 11.6445 21.4598C11.6445 22.9509 12.8534 24.1598 14.3445 24.1598Z" fill="#D2FC99"/>
<path d="M14.3443 24.6605C14.2343 24.6605 14.1243 24.6605 14.0143 24.6405C12.2643 24.4605 10.9843 22.8805 11.1643 21.1205C11.3443 19.3705 12.9243 18.0805 14.6843 18.2705C16.4343 18.4505 17.7143 20.0305 17.5343 21.7905C17.3643 23.4305 15.9643 24.6605 14.3543 24.6605H14.3443ZM14.3443 19.2605C13.2343 19.2605 12.2743 20.1005 12.1543 21.2305C12.0243 22.4405 12.9043 23.5205 14.1143 23.6505C15.3143 23.7805 16.4043 22.9005 16.5343 21.6905C16.6643 20.4805 15.7843 19.4005 14.5743 19.2705C14.4943 19.2705 14.4243 19.2605 14.3443 19.2605Z" fill="#191919"/>
</svg>
