<svg width="65" height="65" viewBox="0 0 65 65" fill="none" xmlns="http://www.w3.org/2000/svg">
<g clip-path="url(#clip0_4915_77325)">
<path d="M32.7164 0.515625H32.2831C14.7384 0.515625 0.515625 14.7384 0.515625 32.2831V32.7164C0.515625 50.2611 14.7384 64.4839 32.2831 64.4839H32.7164C50.2611 64.4839 64.4839 50.2611 64.4839 32.7164V32.2831C64.4839 14.7384 50.2611 0.515625 32.7164 0.515625Z" fill="#9C70FF"/>
<path d="M32.7167 1.03175C49.9468 1.03175 63.9683 15.0532 63.9683 32.2833V32.727C63.9683 49.9571 49.9468 63.9786 32.7167 63.9786H32.273C15.0532 63.9683 1.03175 49.9468 1.03175 32.7167V32.273C1.03175 15.0532 15.0532 1.03175 32.2833 1.03175H32.727M32.7167 0H32.273C14.4548 0 0 14.4548 0 32.2833V32.727C0 50.5452 14.4548 65 32.2833 65H32.727C50.5556 65 65.0103 50.5452 65.0103 32.7167V32.273C65 14.4548 50.5452 0 32.7167 0Z" fill="#191919"/>
<path d="M50.1226 29.7868C49.6893 26.64 48.3893 23.6892 46.3361 21.2543C43.6742 18.1281 40.0115 16.0852 36.0186 15.5074C35.7813 15.4662 35.5543 15.4455 35.2861 15.4146C35.0385 15.394 34.7908 15.363 34.5535 15.3527C27.1869 14.8884 20.3154 19.459 17.8393 26.413C17.4781 27.4448 17.2099 28.5178 17.0551 29.6217L14.6099 46.3773C14.5377 46.8932 14.6718 47.3987 14.9916 47.8011C15.3012 48.2035 15.7551 48.4511 16.271 48.5027L47.0893 51.7424C47.1512 51.7424 47.2131 51.7424 47.2853 51.7424C47.7186 51.7424 48.152 51.5876 48.4924 51.2987C48.8845 50.9686 49.1218 50.5043 49.1631 49.9884L50.2567 33.0987C50.3289 32.036 50.2877 30.9527 50.1432 29.7868H50.1226Z" fill="#191919"/>
<path d="M45.2632 33.1086C44.5203 40.1761 38.1854 45.3039 31.1283 44.561C24.0711 43.8182 18.933 37.4936 19.6759 30.4261C19.8203 29.0126 20.1918 27.6713 20.7592 26.4539H20.7695C26.3719 27.042 31.4997 23.9467 33.7696 19.1182C34.9664 24.3078 39.3513 28.4039 44.9434 28.992H45.0259C45.3251 30.3126 45.4076 31.6951 45.2632 33.1086Z" fill="white"/>
<path d="M32.4903 45.149C32.0157 45.149 31.5411 45.1284 31.0665 45.0768C27.5069 44.7054 24.3085 42.972 22.0696 40.1966C19.8204 37.4212 18.7887 33.9339 19.1601 30.3744C19.3149 28.9196 19.6966 27.5371 20.2847 26.2371L20.4292 25.9173L20.78 25.9379C26.0419 26.495 31.0561 23.6577 33.2847 18.9014L33.9244 17.5498L34.2649 19.0046C35.4411 24.122 39.7538 27.9292 44.995 28.4863L45.3665 28.5276L45.5315 28.899C45.8514 30.2919 45.9339 31.726 45.7792 33.1808C45.4077 36.7403 43.6744 39.9284 40.8887 42.1776C38.4847 44.1276 35.5442 45.1593 32.5006 45.1593L32.4903 45.149ZM21.0792 27.0006C20.6149 28.0942 20.3157 29.2601 20.1815 30.4776C19.8411 33.7585 20.7903 36.9776 22.8641 39.5363C24.9379 42.095 27.8887 43.7046 31.1696 44.045C34.4506 44.3958 37.6593 43.4363 40.2284 41.3625C42.7974 39.2887 44.3966 36.3379 44.7371 33.0569C44.8609 31.8395 44.8196 30.6427 44.5823 29.4665C39.4442 28.7855 35.2244 25.2776 33.6046 20.4903C31.0149 24.8442 26.145 27.3927 21.0585 26.9903L21.0792 27.0006Z" fill="#191919"/>
<path d="M48.6888 32.0665C48.761 30.9728 48.7094 29.8998 48.5753 28.8578C48.1523 25.7522 46.8626 22.9046 44.9126 20.5935C42.4261 17.6736 38.9284 15.6101 34.9046 15.0221C34.6776 14.9808 34.461 14.9601 34.234 14.9395C33.9967 14.9189 33.7388 14.8879 33.4911 14.8776C26.2276 14.4443 19.6657 18.9117 17.2927 25.5974C16.9419 26.5776 16.684 27.63 16.5292 28.703L14.084 45.4482C13.9808 46.2117 14.5173 46.9133 15.2808 46.9855L46.0991 50.2252C46.8522 50.3078 47.5435 49.7403 47.5951 48.9665L48.6888 32.0768V32.0665ZM31.1181 44.5609C24.0507 43.8181 18.9229 37.4935 19.6657 30.426C19.8102 29.0125 20.1816 27.6713 20.7491 26.4538H20.7594C26.3618 27.0419 31.4896 23.9467 33.7594 19.1181C33.7388 19.0562 33.78 19.0665 33.7594 19.1181C34.9562 24.3078 39.3411 28.4038 44.9332 28.9919H45.0157C45.3149 30.3125 45.3975 31.6951 45.253 33.1086C44.5102 40.176 38.1753 45.3038 31.1181 44.5609Z" fill="#D2FC99"/>
<path d="M46.2433 50.7414C46.1814 50.7414 46.1195 50.7414 46.0473 50.7414L15.229 47.5017C14.7235 47.4501 14.2695 47.2025 13.9496 46.8001C13.6298 46.3977 13.4957 45.8922 13.5679 45.3763L16.0131 28.6208C16.1679 27.5271 16.4362 26.4438 16.7973 25.412C19.2735 18.4581 26.1449 13.8874 33.5115 14.3517C33.7489 14.362 34.0068 14.393 34.2441 14.4136C34.5123 14.4446 34.7393 14.4652 34.9766 14.5065C38.9695 15.0843 42.6322 17.1271 45.2941 20.2533C47.3369 22.6882 48.6473 25.639 49.0806 28.7858C49.2354 29.9517 49.2663 31.035 49.1941 32.0977L48.1004 48.9874C48.0695 49.5033 47.8322 49.9676 47.4298 50.2977C47.0893 50.5866 46.656 50.7414 46.2227 50.7414H46.2433ZM32.5417 15.3525C25.9798 15.3525 19.9957 19.5208 17.7774 25.7525C17.4369 26.712 17.1893 27.7335 17.0449 28.7549L14.5996 45.5104C14.5687 45.7374 14.6306 45.9644 14.775 46.1501C14.9195 46.3255 15.1155 46.439 15.3425 46.47L46.1608 49.7096C46.3774 49.7303 46.6044 49.6684 46.7901 49.5136C46.9655 49.3692 47.079 49.1525 47.0893 48.9255L48.183 32.0358C48.2552 31.035 48.2139 30.0239 48.0695 28.92C47.6671 25.9692 46.4393 23.1938 44.5203 20.9136C42.0235 17.9835 38.5774 16.0644 34.8322 15.5176C34.6052 15.4763 34.3989 15.4557 34.1822 15.435C33.9346 15.4041 33.6973 15.3835 33.4703 15.3731C33.1608 15.3525 32.8512 15.3422 32.5417 15.3422V15.3525ZM32.4901 45.1493C32.0155 45.1493 31.5409 45.1287 31.0663 45.0771C27.5068 44.7057 24.3084 42.9723 22.0695 40.1969C19.8203 37.4216 18.7885 33.9343 19.16 30.3747C19.3147 28.92 19.6965 27.5374 20.2846 26.2374L20.429 25.9176L20.7798 25.9382C25.9695 26.485 30.9219 23.7406 33.1917 19.0977L33.1298 18.943L33.7385 18.4271L34.3679 18.8811L34.2957 19.0977V19.17C35.5235 24.2049 39.7949 27.9295 44.9742 28.4763L45.3457 28.5176L45.5108 28.889C45.8306 30.2819 45.9131 31.716 45.7584 33.1708C45.3869 36.7303 43.6536 39.9184 40.8679 42.1676C38.4639 44.1176 35.5235 45.1493 32.4798 45.1493H32.4901ZM21.079 27.0009C20.6147 28.0946 20.3155 29.2604 20.1814 30.4779C19.8409 33.7589 20.7901 36.9779 22.8639 39.5366C24.9377 42.0954 27.8885 43.7049 31.1695 44.0454C34.4401 44.3962 37.6592 43.4366 40.2282 41.3628C42.7973 39.289 44.3965 36.3382 44.7369 33.0573C44.8608 31.8398 44.8195 30.643 44.5822 29.4668C39.4441 28.7858 35.2242 25.2779 33.6044 20.4906C31.0147 24.8446 26.1449 27.393 21.0584 26.9906L21.079 27.0009Z" fill="#191919"/>
<path d="M26.8979 32.8924C26.8979 32.8924 26.805 32.8821 26.7534 32.8717C26.4026 32.7995 26.0931 32.5828 25.8971 32.2836C25.701 31.9844 25.6288 31.613 25.7114 31.2622C25.7836 30.9114 25.9899 30.6019 26.2995 30.4059C26.5987 30.2098 26.9598 30.1376 27.3209 30.2202C27.6717 30.2924 27.9812 30.4987 28.1772 30.8082C28.3733 31.1075 28.4455 31.4686 28.3629 31.8297C28.2907 32.1805 28.0844 32.49 27.7749 32.686C27.5169 32.8614 27.2074 32.9336 26.8979 32.8924Z" fill="#191919"/>
<path d="M37.6694 34.0271C37.6694 34.0271 37.5765 34.0168 37.5249 34.0065C37.1741 33.9343 36.8646 33.7176 36.6686 33.4184C36.4725 33.1192 36.4003 32.7478 36.4828 32.397C36.5551 32.0462 36.7614 31.7367 37.0709 31.5406C37.3701 31.3446 37.7313 31.2724 38.0924 31.3549C38.4432 31.4271 38.7527 31.6335 38.9487 31.943C39.1448 32.2422 39.217 32.6033 39.1344 32.9644C39.0622 33.3152 38.8559 33.6248 38.5463 33.8208C38.2884 33.9962 37.9789 34.0684 37.6694 34.0271Z" fill="#191919"/>
<path d="M32.3357 39.6915C32.0984 39.6915 31.8611 39.6812 31.6238 39.6502C29.746 39.4542 28.0333 38.4637 26.919 36.9264C26.7539 36.6994 26.8055 36.3692 27.0325 36.2042C27.2595 36.0391 27.5896 36.0907 27.7547 36.3177C28.6936 37.6177 30.1484 38.4534 31.7269 38.6185C33.3262 38.7939 34.8841 38.278 36.1119 37.1946C36.3285 37.0089 36.6484 37.0192 36.8444 37.2359C37.0301 37.4526 37.0095 37.7724 36.8031 37.9685C35.5444 39.0931 33.9762 39.6915 32.3357 39.6915Z" fill="#191919"/>
</g>
<defs>
<clipPath id="clip0_4915_77325">
<rect width="65" height="65" fill="white"/>
</clipPath>
</defs>
</svg>
